<?xml version="1.0" encoding="utf-8"?>
<!-- Generator: Adobe Illustrator 23.0.1, SVG Export Plug-In . SVG Version: 6.00 Build 0)  -->
<svg version="1.0" id="Capa_1" xmlns="http://www.w3.org/2000/svg" xmlns:xlink="http://www.w3.org/1999/xlink" x="0px" y="0px"
	 width="339.7px" height="330.5px" viewBox="0 0 339.7 330.5" style="enable-background:new 0 0 339.7 330.5;" xml:space="preserve"
	>
<style type="text/css">
	.st0{fill:#D64D4D;}
	.st1{fill:#1D1D1B;}
	.st2{fill:#FFFFFF;}
	.st3{fill:#A91917;}
	.st4{fill:#7F1718;}
	.st5{fill:none;stroke:#1D1D1B;stroke-width:1.4459;stroke-miterlimit:10;}
	.st6{fill:none;stroke:#079799;stroke-width:0.3006;stroke-miterlimit:10;}
	.st7{fill:#338138;}
	.st8{fill:none;stroke:#CAD402;stroke-width:0.1843;stroke-linecap:round;stroke-miterlimit:10;}
	.st9{fill:none;}
</style>
<circle class="st0" cx="170.7" cy="164.7" r="148.1"/>
<g>
	<g>
		<path class="st1" d="M329.9,164.7c0-6.7-0.4-13.4-1.3-20c0-0.2,0.1-0.3,0.2-0.3c0.2,0,0.3,0.1,0.3,0.2l0,0
			c0.8,6.6,1.2,13.3,1.2,20c0,0.1-0.1,0.3-0.3,0.3C330,165,329.9,164.9,329.9,164.7z"/>
		<path class="st1" d="M324.8,125.1c-1.7-6.5-3.8-12.8-6.2-19c-0.1-0.2,0-0.4,0.2-0.4c0.2-0.1,0.4,0,0.4,0.2l0,0
			c2.5,6.2,4.5,12.6,6.2,19.1c0,0.2-0.1,0.3-0.2,0.4C325,125.4,324.9,125.3,324.8,125.1z"/>
		<path class="st1" d="M310,88.1c-3.3-5.8-6.9-11.4-10.9-16.8c-0.2-0.2-0.1-0.5,0.1-0.7c0.2-0.2,0.5-0.1,0.7,0.1l0,0
			c3.9,5.4,7.6,11.1,10.8,16.9c0.1,0.2,0,0.4-0.2,0.5C310.3,88.3,310.1,88.3,310,88.1z"/>
		<path class="st1" d="M286.2,56c-4.6-4.8-9.5-9.3-14.7-13.5c-0.3-0.2-0.3-0.6-0.1-0.9s0.6-0.3,0.9-0.1c0,0,0,0,0,0l0,0
			c5.2,4.3,10.1,8.9,14.7,13.7c0.2,0.2,0.2,0.6,0,0.8C286.8,56.3,286.4,56.3,286.2,56z"/>
		<path class="st1" d="M255.3,31c-5.7-3.5-11.5-6.6-17.6-9.3c-0.5-0.2-0.7-0.8-0.5-1.2c0.2-0.5,0.8-0.7,1.2-0.5c0,0,0,0,0,0l0,0
			c6.1,2.9,12,6.1,17.6,9.7c0.4,0.2,0.5,0.7,0.2,1.1C256.1,31.2,255.7,31.3,255.3,31L255.3,31z"/>
		<path class="st1" d="M219.2,14.7c-6.3-1.9-12.8-3.5-19.3-4.6c-0.6-0.1-1.1-0.7-1-1.4c0.1-0.6,0.7-1.1,1.4-1c0,0,0,0,0,0l0,0
			c6.6,1.2,13.1,2.9,19.5,5c0.6,0.2,0.9,0.8,0.7,1.3C220.3,14.5,219.7,14.8,219.2,14.7L219.2,14.7z"/>
		<path class="st1" d="M180.2,7.9l-4.9-0.1c-1.6,0-3.3-0.1-4.9-0.1l-9.9,0.4l-0.1,0c-0.8,0-1.5-0.6-1.5-1.4c0-0.8,0.6-1.5,1.4-1.5
			c0,0,0,0,0,0L170.4,5c1.7,0,3.4,0.1,5,0.1l5,0.2c0.7,0,1.3,0.6,1.3,1.4C181.7,7.3,181.1,7.9,180.2,7.9L180.2,7.9z"/>
		<path class="st1" d="M141,10.9c-6.4,1.3-12.8,3.1-19,5.2c-0.9,0.3-1.9-0.2-2.2-1.1c-0.3-0.9,0.2-1.9,1.1-2.2c0,0,0,0,0,0l0,0
			c6.4-2.1,12.9-3.8,19.5-5c0.9-0.2,1.7,0.4,1.9,1.3C142.4,9.9,141.8,10.8,141,10.9L141,10.9z"/>
		<path class="st1" d="M103.8,23.7c-5.9,2.9-11.6,6.1-17,9.7c-0.9,0.6-2.1,0.4-2.7-0.6c-0.6-0.9-0.4-2.1,0.6-2.7c0,0,0,0,0,0l0,0
			c5.6-3.6,11.5-6.9,17.6-9.7c0.9-0.4,2,0,2.5,0.9C105.1,22.1,104.7,23.2,103.8,23.7L103.8,23.7z"/>
		<path class="st1" d="M71.1,45.2c-5,4.3-9.7,8.8-14.1,13.6c-0.8,0.9-2.2,1-3.1,0.1c-0.9-0.8-1-2.2-0.1-3.1l0,0l0,0
			c4.6-4.9,9.5-9.5,14.6-13.8c0.9-0.7,2.2-0.6,3,0.3C72.1,43.1,72,44.4,71.1,45.2L71.1,45.2z"/>
		<path class="st1" d="M44.7,74c-3.8,5.3-7.2,10.9-10.3,16.6c-0.6,1.2-2.1,1.6-3.2,1s-1.6-2.1-1-3.2l0,0l0,0
			c3.2-5.9,6.8-11.6,10.7-17c0.7-1,2.2-1.3,3.2-0.5C45.3,71.5,45.5,72.9,44.7,74L44.7,74z"/>
		<path class="st1" d="M26.3,108.3c-2.4,6.1-4.3,12.3-5.9,18.6c-0.3,1.3-1.7,2.1-3,1.8c-1.3-0.3-2.1-1.7-1.8-3l0,0l0,0
			c1.6-6.5,3.7-12.9,6.1-19.2c0.5-1.2,1.9-1.9,3.1-1.4C26.2,105.6,26.8,107,26.3,108.3L26.3,108.3z"/>
		<path class="st1" d="M16.9,146c-0.4,3.2-0.7,6.5-0.8,9.7c-0.2,3.2-0.2,6.5-0.2,9.7l0,0c0,1.4-1.1,2.5-2.5,2.5
			c-1.4,0-2.5-1.1-2.5-2.5c0-6.7,0.4-13.4,1.2-20.1c0.2-1.4,1.4-2.3,2.8-2.2C16.1,143.4,17.1,144.7,16.9,146L16.9,146z"/>
		<path class="st1" d="M17.1,185c0.8,6.5,2.1,12.8,3.7,19.1l0,0c0.3,1.3-0.4,2.6-1.8,3c-1.3,0.3-2.6-0.4-3-1.7
			c-1.7-6.5-3-13.1-3.9-19.7l0,0c-0.2-1.4,0.8-2.6,2.1-2.8C15.7,182.6,16.9,183.6,17.1,185L17.1,185z"/>
		<path class="st1" d="M26.9,222.6c2.4,6,5.2,11.9,8.3,17.6l0,0c0.6,1.1,0.2,2.6-0.9,3.2c-1.1,0.6-2.6,0.2-3.2-0.9
			c-3.3-5.9-6.2-11.9-8.7-18.1c-0.5-1.2,0.1-2.6,1.3-3.1C25,220.8,26.4,221.4,26.9,222.6L26.9,222.6z"/>
		<path class="st1" d="M45.6,256.8c3.8,5.3,8,10.3,12.4,15.1l0,0c0.8,0.9,0.8,2.3-0.1,3.1c-0.9,0.8-2.3,0.8-3.1-0.1
			c-4.6-4.9-8.9-10-12.9-15.4l0,0c-0.7-1-0.5-2.4,0.5-3.2C43.5,255.5,44.9,255.8,45.6,256.8L45.6,256.8z"/>
		<path class="st1" d="M72.3,285.3c5,4.2,10.3,8.1,15.8,11.6l0,0c0.9,0.6,1.2,1.8,0.6,2.7c-0.6,0.9-1.8,1.2-2.7,0.6
			c-5.7-3.6-11.1-7.5-16.3-11.7l0,0c-0.9-0.7-1-2-0.3-2.9C70.1,284.7,71.4,284.6,72.3,285.3C72.3,285.3,72.3,285.3,72.3,285.3z"/>
		<path class="st1" d="M105.2,306.5c5.9,2.8,12,5.3,18.2,7.4l0,0c0.9,0.3,1.4,1.3,1.1,2.1c-0.3,0.9-1.2,1.4-2.1,1.1
			c-6.4-2-12.7-4.5-18.7-7.3l0,0c-0.9-0.4-1.3-1.5-0.9-2.4S104.3,306.1,105.2,306.5C105.2,306.5,105.2,306.5,105.2,306.5z"/>
		<path class="st1" d="M142.5,318.9c6.5,1.3,13,2.1,19.6,2.6l0,0c0.8,0.1,1.4,0.7,1.3,1.5c-0.1,0.8-0.7,1.4-1.5,1.3
			c-6.7-0.4-13.4-1.1-20-2.3l0,0c-0.8-0.2-1.4-1-1.3-1.8S141.6,318.7,142.5,318.9C142.5,318.9,142.5,318.9,142.5,318.9z"/>
		<path class="st1" d="M181.8,321.5c6.6-0.4,13.2-1.2,19.6-2.4l0,0c0.6-0.1,1.2,0.3,1.4,0.9c0.1,0.6-0.3,1.2-0.9,1.4
			c-6.6,1.3-13.2,2.2-19.9,2.7l0,0c-0.7,0.1-1.3-0.5-1.4-1.2C180.5,322.2,181.1,321.6,181.8,321.5
			C181.8,321.5,181.8,321.5,181.8,321.5z"/>
		<path class="st1" d="M220.7,314.4c6.3-2,12.5-4.4,18.5-7.2l0,0c0.5-0.2,1,0,1.2,0.4c0.2,0.4,0,1-0.4,1.2c-6,2.9-12.3,5.4-18.6,7.6
			l0,0c-0.5,0.2-1.1-0.1-1.3-0.7C219.8,315.1,220.1,314.5,220.7,314.4C220.7,314.4,220.7,314.4,220.7,314.4z"/>
		<path class="st1" d="M256.6,297.6c5.6-3.5,11-7.4,16.2-11.7l0,0c0.3-0.2,0.7-0.2,0.9,0.1c0.2,0.3,0.2,0.7-0.1,0.9
			c-5.1,4.3-10.5,8.3-16.1,12l0,0c-0.4,0.2-0.8,0.1-1.1-0.2C256.2,298.3,256.3,297.8,256.6,297.6
			C256.6,297.6,256.6,297.6,256.6,297.6z"/>
		<path class="st1" d="M287.3,272.3c4.6-4.9,8.8-10,12.7-15.4c0.2-0.2,0.4-0.3,0.7-0.1c0.2,0.2,0.3,0.4,0.1,0.7
			c-3.9,5.5-8.1,10.7-12.7,15.6c-0.2,0.2-0.6,0.2-0.8,0C287.1,272.9,287.1,272.5,287.3,272.3L287.3,272.3z"/>
		<path class="st1" d="M310.7,240c3.2-5.8,6-11.9,8.4-18.1c0.1-0.2,0.3-0.3,0.4-0.2s0.3,0.3,0.2,0.4c-2.4,6.3-5.2,12.4-8.4,18.3
			c-0.1,0.2-0.3,0.3-0.5,0.2S310.6,240.2,310.7,240L310.7,240z"/>
		<path class="st1" d="M325.2,202.8c1.6-6.5,2.8-13.1,3.6-19.7c0-0.2,0.2-0.3,0.3-0.2c0.2,0,0.3,0.2,0.2,0.3
			c-0.8,6.7-1.9,13.3-3.5,19.8c0,0.2-0.2,0.3-0.4,0.2C325.3,203.2,325.2,203,325.2,202.8L325.2,202.8z"/>
	</g>
</g>
<g>
	<g>
		<path class="st1" d="M62.5,177.8v8.3H34.8v-8.3H62.5z"/>
		<path class="st1" d="M78.8,164.5h11.9v12.2l-11,10h-7.3v-8.9h8.6v-4.5H69v-12.3l11-10h10.8v8.9H78.8V164.5z"/>
		<path class="st1" d="M109.3,142.1c1,0.3,1.6,0.4,1.8,0.4l3.2-0.3c2.3,0.3,3.5,0.8,3.5,1.5c0.3,0,0.6,2.4,1,7.2c0.7,2.7,1,5,1,6.8
			c0.1,0,0.2,0.6,0.4,1.9c-0.1,0.6-0.1,1.2-0.1,1.8c0,1.3,0.3,3.2,0.9,5.7h-0.1c0.1,0.3,0.2,0.9,0.2,1.8v1.2l0.6,3.6l-0.1,1.4
			c0.1,0.9,0.2,1.4,0.2,1.6c-0.4,1.2-0.8,1.8-1.3,1.8c0,0.1-0.2,0.2-0.6,0.3c-2.1-0.1-3.2-0.1-3.2-0.2l-0.6,0.1h-1
			c-1.5,0-2.3-1-2.5-3c0-2.6-0.5-4.2-1.6-4.7c-0.5,0-0.7-0.1-0.7-0.2c-1.6,0-2.6,1.2-2.9,3.5c0,2.4-0.2,3.6-0.7,3.6
			c0,0.4-1.5,0.8-4.5,1.1c-1.9-0.1-3.1-0.5-3.4-1.1c-0.1-0.2-0.3-0.6-0.4-1.2c0-0.9,0.2-2.7,0.7-5.1c-0.1-0.3-0.1-0.5-0.1-0.6
			c0.5-2.6,0.8-5.2,0.8-7.9c0-0.3,0.4-2.6,1.3-6.9v-0.3l-0.1-1c0.5-1.7,0.7-2.6,0.7-2.9c0-0.1,0-0.6-0.1-1.4c0.7-2.7,1-4.9,1-6.6
			c0.3-0.9,1.2-1.4,2.8-1.4c0.6-0.1,0.9-0.1,1.1-0.1l0.9,0.1C107.9,142.3,108.6,142.2,109.3,142.1z M108.4,159.9
			c0.2,1.2,0.6,1.8,1.3,1.8h0.2c0.7,0,1.1-0.6,1.1-1.7c0-0.9-0.4-1.6-1.1-2c-0.9,0.3-1.4,0.8-1.4,1.5L108.4,159.9z"/>
		<path class="st1" d="M139.4,142.2c1.8,0.6,2.7,1.4,2.7,2.3l-0.1,1v0.8c0,0.4,0.1,1.3,0.2,2.9c0,0.3-0.1,1.4-0.3,3.4
			c0.1,1.5,0.1,2.6,0.1,3.2c-0.2,1.8-0.3,2.9-0.3,3.3c0,0.3,0.1,1.4,0.4,3.2c-0.1,1.6-0.2,3-0.2,4.3c0.2,2.4,0.8,3.7,1.8,3.7
			c1.2,0.3,2.3,0.4,3.4,0.4h1.8c1.6,0.3,2.4,1.1,2.4,2.4c0.1,1.8,0.1,2.9,0.1,3.3c-0.2,1.7-0.9,2.6-2.2,2.6l-1,0.2
			c0,0-0.2,0-0.6-0.1c-2.8-0.1-4.7-0.1-5.8-0.1l-1.9,0.3c-1.3-0.4-1.9-0.6-2-0.6c-1,0.1-1.9,0.1-2.8,0.1h-0.1c-1,0-1.7-1-2.1-2.9
			V174c0-0.6,0.1-1.5,0.2-2.6c-0.2-2.5-0.3-4-0.3-4.5c0-0.2,0.1-0.9,0.3-2.2c-0.1-1.2-0.2-2-0.2-2.4v-0.9c0.2-1.2,0.3-2,0.3-2.2
			l-0.3-2v-1.1c0-0.3,0.1-1.1,0.2-2.4c-0.2-3-0.3-4.7-0.3-5.1c0-0.3,0.1-0.8,0.3-1.6c-0.1-1.3-0.1-2.3-0.1-3c0-1,0.7-1.5,2-1.7
			c0.6-0.1,1.2-0.1,1.8-0.1v-0.1c0.1,0.1,0.2,0.1,0.3,0.1C137.1,142.4,137.9,142.3,139.4,142.2L139.4,142.2z"/>
		<path class="st1" d="M182.7,152.5h6.3v6.3h-6.3v6.3h-12.7v12.7h-12.7v-31.6h25.3V152.5z M170.1,158.9h6.3v-6.3h-6.3V158.9z"/>
		<path class="st1" d="M202.7,140v9h-9.8v-9H202.7z M192.9,157.7l9.8-9v29.1h-9.8V157.7z"/>
		<path class="st1" d="M238.2,177.8v8.3h-27.6v-8.3H238.2z"/>
	</g>
</g>
<g>
	<path class="st1" d="M58.8,221.4v6.3h-19v-6.3h-6.3v-19h6.3v-6.3h19v6.3H46.2v19H58.8z"/>
	<path class="st1" d="M101.9,221.4h-6.3v6.3h-19v-6.3h-6.3v-19h6.3v-6.3h19v6.3h6.3V221.4z M89.2,202.4h-6.3v19h6.3V202.4z"/>
	<path class="st1" d="M207.9,215.1h6.3v12.7h-12.7v-12.7h-6.3v12.7h-12.7v-31.6h25.3v6.3h6.3v6.3h-6.3V215.1z M195.2,208.8h6.1v-6.3
		h-6.1V208.8z"/>
	<path class="st1" d="M250.9,202.4h6.3v25.3h-12.7v-12.7h-6.3v12.7h-12.7v-25.3h6.3v-6.3h19V202.4z M244.6,202.4h-6.3v6.3h6.3V202.4
		z"/>
</g>
<g>
	<path class="st1" d="M109.2,222.5v-12.1h6.1v-6.1h12.1v-22.1h12.1v46.3h-24.3v-6.1H109.2z M121.5,222.5h5.8v-12.1h-5.8V222.5z"/>
</g>
<g>
	<g>
		<path class="st1" d="M175.7,219.7v8.9h-22.6l-6.8-6.2v-10.5l11-10h18.4v11.5l-6.7,6.2H175.7z M165.9,210.8h-9.7v8.9h9.7V210.8z"/>
	</g>
</g>
<g>
	<path class="st1" d="M92.1,131.5v8.3H64.4v-8.3H92.1z"/>
	<path class="st1" d="M108.4,96v35.5h-9.8V96H108.4z"/>
	<path class="st1" d="M127.7,131.5H115v-16.7l11-10h18.3v26.7h-9.8v-6.2L127.7,131.5z M134.5,113.8h-9.7v8.9h9.7V113.8z"/>
</g>
<g>
	<g>
		<g>
			<path class="st2" d="M152.1,129.5v-1.4c0-1.4-0.4-2.2-2.2-2.2c-0.3,0-0.4-0.1-0.4-0.3c0-0.2,0.1-0.3,0.4-0.3
				c1.8,0,2.2-0.9,2.2-2.2v-1.4c0-1.8,0.6-2.9,3.5-3.5c0.2,0,0.4-0.1,0.4,0.2c0,0.1-0.1,0.2-0.2,0.2c-2.6,0.7-3.2,1.5-3.2,3.3v1.3
				c0,1.6-0.7,2.2-1.8,2.5c1.2,0.4,1.8,1,1.8,2.5v1.3c0,1.7,0.6,2.6,3.2,3.3c0.1,0,0.2,0.1,0.2,0.2c0,0.2-0.2,0.2-0.4,0.1
				C152.7,132.5,152.1,131.3,152.1,129.5z"/>
			<path class="st2" d="M158.2,126.3c0-2.4,1.9-4.3,4.2-4.3c2.2,0,4,1.7,4.1,4v0v0v0c0,0.1-0.1,0.2-0.2,0.2h-7.7v0.1
				c0,2.1,1.7,3.9,3.8,3.9c1.3,0,2.5-0.7,3.1-1.8c0.1-0.1,0.2-0.1,0.3-0.1c0.1,0.1,0.1,0.2,0.1,0.3c-0.7,1.1-2,2-3.5,2
				C160.1,130.6,158.2,128.7,158.2,126.3z M158.7,125.8h7.5c-0.2-1.9-1.8-3.4-3.7-3.4C160.5,122.4,158.9,123.9,158.7,125.8z"/>
			<path class="st2" d="M169.1,130.3l2.9-4l-2.9-4c-0.1-0.1-0.1-0.2,0-0.3c0.1-0.1,0.2,0,0.3,0.1l2.8,3.8l2.8-3.8
				c0.1-0.1,0.2-0.1,0.3-0.1c0.1,0.1,0.1,0.2,0.1,0.3l-2.9,4l2.9,4c0.1,0.1,0,0.2-0.1,0.3c0,0.1-0.1,0.1-0.1,0.1
				c-0.1,0-0.2,0-0.2-0.1l-2.8-3.8l-2.8,3.8c-0.1,0.1-0.1,0.1-0.2,0.1c-0.1,0-0.1,0-0.1-0.1C169,130.5,169,130.4,169.1,130.3z"/>
			<path class="st2" d="M180,126.4v-0.2v-0.2v-3.9c0-0.1,0.1-0.2,0.2-0.2c0.1,0,0.2,0.1,0.2,0.2v2.1c0.7-1.4,2.1-2.4,3.7-2.4
				c2.3,0,4.2,1.9,4.2,4.3c0,2.4-1.8,4.3-4.2,4.3c-1.6,0-3-1-3.7-2.3v6c0,0.1-0.1,0.2-0.2,0.2c-0.1,0-0.2-0.1-0.2-0.2V126.4z
				 M180.4,126.2c0,2.1,1.7,3.8,3.7,3.8c2,0,3.7-1.7,3.7-3.8c0-2.1-1.7-3.8-3.7-3.8c-2,0-3.6,1.6-3.7,3.7V126.2z"/>
			<path class="st2" d="M191.3,126.3c0-2.4,1.9-4.3,4.2-4.3c2.2,0,4,1.7,4.1,4v0v0v0c0,0.1-0.1,0.2-0.2,0.2h-7.7v0.1
				c0,2.1,1.7,3.9,3.8,3.9c1.3,0,2.5-0.7,3.1-1.8c0.1-0.1,0.2-0.1,0.3-0.1c0.1,0.1,0.1,0.2,0.1,0.3c-0.7,1.1-2,2-3.5,2
				C193.2,130.6,191.3,128.7,191.3,126.3z M191.7,125.8h7.5c-0.2-1.9-1.8-3.4-3.7-3.4C193.6,122.4,192,123.9,191.7,125.8z"/>
			<path class="st2" d="M202.7,126.3c0,0,0-0.1,0-0.1v-4c0-0.1,0.1-0.2,0.2-0.2c0.1,0,0.2,0.1,0.2,0.2v2.9c0.1-0.3,0.3-0.7,0.5-1
				c0.7-1,1.8-2.1,3.4-2.1c0.1,0,0.2,0.1,0.2,0.2c0,0.1-0.1,0.2-0.2,0.2c-1.1,0-1.9,0.5-2.5,1.2c-0.6,0.7-1,1.6-1.3,2.1
				c-0.1,0.4-0.2,0.6-0.2,0.6v4c0,0.1-0.1,0.2-0.2,0.2c-0.1,0-0.2-0.1-0.2-0.2V126.3z"/>
			<path class="st2" d="M210.9,119.4c0-0.1,0.1-0.2,0.2-0.2c0.1,0,0.2,0.1,0.2,0.2v0.4c0,0.1-0.1,0.2-0.2,0.2
				c-0.1,0-0.2-0.1-0.2-0.2V119.4z M210.9,122.2c0-0.1,0.1-0.2,0.2-0.2c0.1,0,0.2,0.1,0.2,0.2v8.2c0,0.1-0.1,0.2-0.2,0.2
				c-0.1,0-0.2-0.1-0.2-0.2V122.2z"/>
			<path class="st2" d="M215.7,126.3c0-2.4,1.9-4.3,4.2-4.3c2.2,0,4,1.7,4.1,4v0v0v0c0,0.1-0.1,0.2-0.2,0.2h-7.7v0.1
				c0,2.1,1.7,3.9,3.8,3.9c1.3,0,2.5-0.7,3.1-1.8c0.1-0.1,0.2-0.1,0.3-0.1c0.1,0.1,0.1,0.2,0.1,0.3c-0.7,1.1-2,2-3.5,2
				C217.6,130.6,215.7,128.7,215.7,126.3z M216.2,125.8h7.5c-0.2-1.9-1.8-3.4-3.7-3.4C218,122.4,216.4,123.9,216.2,125.8z"/>
			<path class="st2" d="M234,125.5c0-1.7-1.4-3.1-3-3.1c-1.7,0-3.1,1.3-3.1,3.1v4.9c0,0.1,0,0.1-0.1,0.1c0,0.1-0.1,0.1-0.2,0.1h0h0
				c0,0,0,0-0.1,0c0,0,0,0-0.1,0c0,0,0,0,0,0c0,0,0-0.1,0-0.1v0v-4.9v-0.1v-3.1c0-0.1,0.1-0.2,0.2-0.2c0.1,0,0.2,0.1,0.2,0.2v1.6
				c0.6-1.1,1.7-1.8,3.1-1.8c1.9,0,3.5,1.6,3.5,3.5v4.9c0,0.1-0.1,0.2-0.2,0.2c-0.1,0-0.2-0.1-0.2-0.2V125.5z"/>
			<path class="st2" d="M242.6,122c1,0,2,0.3,2.8,0.9c0.1,0.1,0.1,0.2,0,0.3c-0.1,0.1-0.2,0.1-0.3,0c-0.7-0.5-1.6-0.8-2.5-0.8
				c-2.2,0-4,1.7-4,3.9c0,2.1,1.8,3.9,4,3.9c0.9,0,1.8-0.3,2.5-0.9c0.1-0.1,0.2,0,0.3,0.1c0.1,0.1,0.1,0.2,0,0.3
				c-0.8,0.6-1.7,0.9-2.8,0.9c-2.5,0-4.4-2-4.4-4.3C238.2,123.9,240.1,122,242.6,122z"/>
			<path class="st2" d="M249.3,119.4c0-0.1,0.1-0.2,0.2-0.2c0.1,0,0.2,0.1,0.2,0.2v0.4c0,0.1-0.1,0.2-0.2,0.2
				c-0.1,0-0.2-0.1-0.2-0.2V119.4z M249.3,122.2c0-0.1,0.1-0.2,0.2-0.2c0.1,0,0.2,0.1,0.2,0.2v8.2c0,0.1-0.1,0.2-0.2,0.2
				c-0.1,0-0.2-0.1-0.2-0.2V122.2z"/>
			<path class="st2" d="M261.9,122.2v8.2c0,0.1-0.1,0.2-0.2,0.2c-0.1,0-0.2-0.1-0.2-0.2v-2.2c-0.7,1.4-2,2.4-3.6,2.4
				c-2.3,0-4.1-2-4.1-4.3c0-2.4,1.8-4.3,4.1-4.3c1.6,0,3,1,3.6,2.4v-2.2c0-0.1,0.1-0.2,0.2-0.2C261.8,122,261.9,122.1,261.9,122.2z
				 M261.5,126.3c0-2.1-1.6-3.9-3.6-3.9c-2,0-3.6,1.7-3.6,3.9c0,2.2,1.6,3.9,3.6,3.9C259.8,130.2,261.5,128.4,261.5,126.3z"/>
		</g>
	</g>
	<g>
		<path class="st2" d="M221.5,139.4v8.2c0,0.1-0.1,0.2-0.2,0.2c-0.1,0-0.2-0.1-0.2-0.2v-2.2c-0.7,1.4-2,2.4-3.6,2.4
			c-2.3,0-4.1-2-4.1-4.3c0-2.4,1.8-4.3,4.1-4.3c1.6,0,3,1,3.6,2.4v-2.2c0-0.1,0.1-0.2,0.2-0.2C221.4,139.1,221.5,139.3,221.5,139.4z
			 M221,143.5c0-2.1-1.6-3.9-3.6-3.9s-3.6,1.7-3.6,3.9c0,2.2,1.6,3.9,3.6,3.9S221,145.6,221,143.5z"/>
		<path class="st2" d="M225.4,139.4c0-0.1,0.1-0.2,0.2-0.2c0.1,0,0.2,0.1,0.2,0.2v4.9c0,1.7,1.4,3.1,3,3.1c1.7,0,3-1.4,3-3.1v-4.9
			c0-0.1,0.1-0.2,0.2-0.2c0.1,0,0.2,0.1,0.2,0.2v4.9c0,1.9-1.6,3.5-3.5,3.5c-1.9,0-3.5-1.6-3.5-3.5V139.4z"/>
		<path class="st2" d="M244.4,147.8c-0.1,0-0.2-0.1-0.2-0.2v-2.1c-0.7,1.4-2.1,2.4-3.7,2.4c-2.3,0-4.2-2-4.2-4.3
			c0-2.4,1.9-4.3,4.2-4.3c1.6,0,3,1,3.7,2.4v-5.8c0-0.1,0.1-0.3,0.2-0.3c0.1,0,0.2,0.1,0.2,0.3v7.6v0.2v0.2v3.9
			C244.7,147.7,244.6,147.8,244.4,147.8z M244.2,143.3c-0.1-2.1-1.7-3.7-3.7-3.7c-2.1,0-3.8,1.7-3.8,3.9c0,2.2,1.7,3.9,3.8,3.9
			c2,0,3.7-1.7,3.7-3.9V143.3z"/>
		<path class="st2" d="M249,136.6c0-0.1,0.1-0.2,0.2-0.2c0.1,0,0.2,0.1,0.2,0.2v0.4c0,0.1-0.1,0.2-0.2,0.2c-0.1,0-0.2-0.1-0.2-0.2
			V136.6z M249,139.3c0-0.1,0.1-0.2,0.2-0.2c0.1,0,0.2,0.1,0.2,0.2v8.2c0,0.1-0.1,0.2-0.2,0.2c-0.1,0-0.2-0.1-0.2-0.2V139.3z"/>
		<path class="st2" d="M258,139.1c2.3,0,4.1,1.9,4.1,4.3c0,2.4-1.8,4.3-4.1,4.3c-2.3,0-4.1-2-4.1-4.3
			C254,141.1,255.8,139.1,258,139.1z M258,147.3c2,0,3.7-1.7,3.7-3.9c0-2.2-1.7-3.9-3.7-3.9c-2,0-3.6,1.7-3.6,3.9
			C254.4,145.6,256,147.3,258,147.3z"/>
		<path class="st2" d="M264.7,139.5c-0.1-0.1,0-0.2,0.1-0.3c0.1-0.1,0.2,0,0.3,0.1l3.2,7.7l3.2-7.7c0-0.1,0.2-0.2,0.3-0.1
			c0.1,0.1,0.2,0.2,0.1,0.3l-3.4,8.2c0,0,0,0.1,0,0.1c-0.1,0.1-0.1,0.1-0.2,0.1h0h-0.1c-0.1,0-0.1-0.1-0.2-0.1L264.7,139.5z"/>
		<path class="st2" d="M276,136.6c0-0.1,0.1-0.2,0.2-0.2c0.1,0,0.2,0.1,0.2,0.2v0.4c0,0.1-0.1,0.2-0.2,0.2c-0.1,0-0.2-0.1-0.2-0.2
			V136.6z M276,139.3c0-0.1,0.1-0.2,0.2-0.2c0.1,0,0.2,0.1,0.2,0.2v8.2c0,0.1-0.1,0.2-0.2,0.2c-0.1,0-0.2-0.1-0.2-0.2V139.3z"/>
		<path class="st2" d="M281,146.5c-0.1-0.1-0.1-0.2,0-0.3c0.1-0.1,0.2-0.1,0.3,0c0,0,1.3,1.1,2.9,1.1c1.6,0,2.9-0.9,2.9-2
			c0-1.3-1.3-1.6-2.6-1.9c-1.4-0.3-2.9-0.7-2.9-2.3c0-1.2,1.2-2.1,2.7-2.1c1.7,0,2.6,1,2.7,1.1c0.1,0.1,0.1,0.2,0,0.3
			c-0.1,0.1-0.2,0.1-0.3,0c0,0-0.8-0.9-2.3-0.9c-1.3,0-2.3,0.7-2.3,1.6c0,1.3,1.2,1.5,2.6,1.9c1.4,0.3,3,0.7,3,2.4
			c0,1.4-1.5,2.5-3.3,2.5C282.4,147.8,281,146.6,281,146.5z"/>
		<path class="st2" d="M290.4,139.4c0-0.1,0.1-0.2,0.2-0.2c0.1,0,0.2,0.1,0.2,0.2v4.9c0,1.7,1.4,3.1,3,3.1c1.7,0,3-1.4,3-3.1v-4.9
			c0-0.1,0.1-0.2,0.2-0.2c0.1,0,0.2,0.1,0.2,0.2v4.9c0,1.9-1.6,3.5-3.5,3.5c-1.9,0-3.5-1.6-3.5-3.5V139.4z"/>
		<path class="st2" d="M309,139.4v8.2c0,0.1-0.1,0.2-0.2,0.2c-0.1,0-0.2-0.1-0.2-0.2v-2.2c-0.7,1.4-2,2.4-3.6,2.4
			c-2.3,0-4.1-2-4.1-4.3c0-2.4,1.8-4.3,4.1-4.3c1.6,0,3,1,3.6,2.4v-2.2c0-0.1,0.1-0.2,0.2-0.2C309,139.1,309,139.3,309,139.4z
			 M308.6,143.5c0-2.1-1.6-3.9-3.6-3.9s-3.6,1.7-3.6,3.9c0,2.2,1.6,3.9,3.6,3.9S308.6,145.6,308.6,143.5z"/>
		<path class="st2" d="M313.6,135.7c0-0.1,0.1-0.2,0.2-0.2c0.1,0,0.2,0.1,0.2,0.2v11.9c0,0.1-0.1,0.2-0.2,0.2
			c-0.1,0-0.2-0.1-0.2-0.2V135.7z"/>
	</g>
	<g>
		<path class="st2" d="M225.4,164.9c-0.1,0-0.2-0.1-0.2-0.2v-2.1c-0.7,1.4-2.1,2.4-3.7,2.4c-2.3,0-4.2-2-4.2-4.3
			c0-2.4,1.9-4.3,4.2-4.3c1.6,0,3,1,3.7,2.4v-5.8c0-0.1,0.1-0.3,0.2-0.3c0.1,0,0.2,0.1,0.2,0.3v7.6v0.2v0.2v3.9
			C225.6,164.8,225.5,164.9,225.4,164.9z M225.1,160.4c-0.1-2.1-1.7-3.7-3.7-3.7c-2.1,0-3.8,1.7-3.8,3.9c0,2.2,1.7,3.9,3.8,3.9
			c2,0,3.7-1.7,3.7-3.9V160.4z"/>
		<path class="st2" d="M229,160.6c0-2.4,1.9-4.3,4.2-4.3c2.2,0,4,1.7,4.1,4v0v0v0c0,0.1-0.1,0.2-0.2,0.2h-7.7v0.1
			c0,2.1,1.7,3.9,3.8,3.9c1.3,0,2.5-0.7,3.1-1.8c0.1-0.1,0.2-0.1,0.3-0.1c0.1,0.1,0.1,0.2,0.1,0.3c-0.7,1.1-2,2-3.5,2
			C230.9,164.9,229,163,229,160.6z M229.5,160.1h7.5c-0.2-1.9-1.8-3.4-3.7-3.4C231.3,156.8,229.7,158.2,229.5,160.1z"/>
		<path class="st2" d="M250.4,156.3c1,0,2,0.3,2.8,0.9c0.1,0.1,0.1,0.2,0,0.3c-0.1,0.1-0.2,0.1-0.3,0c-0.7-0.5-1.6-0.8-2.5-0.8
			c-2.2,0-4,1.7-4,3.9c0,2.1,1.8,3.9,4,3.9c0.9,0,1.8-0.3,2.5-0.9c0.1-0.1,0.2,0,0.3,0.1c0.1,0.1,0.1,0.2,0,0.3
			c-0.8,0.6-1.7,0.9-2.8,0.9c-2.5,0-4.4-2-4.4-4.3C245.9,158.2,247.9,156.3,250.4,156.3z"/>
		<path class="st2" d="M260.5,156.3c2.3,0,4.1,1.9,4.1,4.3c0,2.4-1.8,4.3-4.1,4.3s-4.1-2-4.1-4.3
			C256.4,158.2,258.2,156.3,260.5,156.3z M260.5,164.5c2,0,3.7-1.7,3.7-3.9c0-2.2-1.7-3.9-3.7-3.9c-2,0-3.6,1.7-3.6,3.9
			C256.9,162.8,258.5,164.5,260.5,164.5z"/>
		<path class="st2" d="M275.8,164.9c-0.1,0-0.2-0.1-0.2-0.2v-2.1c-0.7,1.4-2.1,2.4-3.7,2.4c-2.3,0-4.2-2-4.2-4.3
			c0-2.4,1.9-4.3,4.2-4.3c1.6,0,3,1,3.7,2.4v-5.8c0-0.1,0.1-0.3,0.2-0.3c0.1,0,0.2,0.1,0.2,0.3v7.6v0.2v0.2v3.9
			C276.1,164.8,276,164.9,275.8,164.9z M275.6,160.4c-0.1-2.1-1.7-3.7-3.7-3.7c-2.1,0-3.8,1.7-3.8,3.9c0,2.2,1.7,3.9,3.8,3.9
			c2,0,3.7-1.7,3.7-3.9V160.4z"/>
		<path class="st2" d="M280.4,153.7c0-0.1,0.1-0.2,0.2-0.2c0.1,0,0.2,0.1,0.2,0.2v0.4c0,0.1-0.1,0.2-0.2,0.2c-0.1,0-0.2-0.1-0.2-0.2
			V153.7z M280.4,156.5c0-0.1,0.1-0.2,0.2-0.2c0.1,0,0.2,0.1,0.2,0.2v8.2c0,0.1-0.1,0.2-0.2,0.2c-0.1,0-0.2-0.1-0.2-0.2V156.5z"/>
		<path class="st2" d="M293.4,156.5v7.9c0,2.3-1.8,4.1-4.1,4.1c-0.7,0-1.2-0.2-1.8-0.4c-0.1-0.1-0.1-0.2-0.1-0.3
			c0.1-0.1,0.2-0.1,0.3-0.1c0.5,0.2,1,0.4,1.6,0.4c2,0,3.6-1.6,3.6-3.7v-1.9c-0.7,1.4-2,2.4-3.6,2.4c-2.3,0-4.1-2-4.1-4.3
			c0-2.4,1.8-4.3,4.1-4.3c1.6,0,3,1,3.6,2.4v-2.1c0-0.1,0.1-0.2,0.2-0.2C293.3,156.3,293.4,156.4,293.4,156.5z M289.3,156.7
			c-2,0-3.6,1.7-3.6,3.9c0,2.2,1.6,3.9,3.6,3.9s3.6-1.7,3.6-3.9C292.9,158.5,291.3,156.7,289.3,156.7z"/>
		<path class="st2" d="M301.6,156.3c2.3,0,4.1,1.9,4.1,4.3c0,2.4-1.8,4.3-4.1,4.3s-4.1-2-4.1-4.3
			C297.5,158.2,299.3,156.3,301.6,156.3z M301.6,164.5c2,0,3.7-1.7,3.7-3.9c0-2.2-1.7-3.9-3.7-3.9c-2,0-3.6,1.7-3.6,3.9
			C297.9,162.8,299.6,164.5,301.6,164.5z"/>
	</g>
	<g>
		<path class="st2" d="M246,177.8c0-2.4,1.9-4.3,4.2-4.3c2.2,0,4,1.7,4.1,4v0v0v0c0,0.1-0.1,0.2-0.2,0.2h-7.7v0.1
			c0,2.1,1.7,3.9,3.8,3.9c1.3,0,2.5-0.7,3.1-1.8c0.1-0.1,0.2-0.1,0.3-0.1c0.1,0.1,0.1,0.2,0.1,0.3c-0.7,1.1-2,2-3.5,2
			C247.9,182.1,246.1,180.1,246,177.8z M246.5,177.3h7.5c-0.2-1.9-1.8-3.4-3.7-3.4C248.3,173.9,246.7,175.4,246.5,177.3z"/>
		<path class="st2" d="M264.4,177c0-1.7-1.4-3.1-3-3.1c-1.7,0-3.1,1.3-3.1,3.1v4.9c0,0.1,0,0.1-0.1,0.1c0,0.1-0.1,0.1-0.2,0.1h0h0
			c0,0,0,0-0.1,0c0,0,0,0-0.1,0c0,0,0,0,0,0c0,0,0-0.1,0-0.1v0V177v-0.1v-3.1c0-0.1,0.1-0.2,0.2-0.2c0.1,0,0.2,0.1,0.2,0.2v1.6
			c0.6-1.1,1.7-1.8,3.1-1.8c1.9,0,3.5,1.6,3.5,3.5v4.9c0,0.1-0.1,0.2-0.2,0.2c-0.1,0-0.2-0.1-0.2-0.2V177z"/>
		<path class="st2" d="M274.2,173.8c-0.1-0.1,0-0.2,0.1-0.3c0.1-0.1,0.2,0,0.3,0.1l3.2,7.7l3.2-7.7c0-0.1,0.2-0.2,0.3-0.1
			c0.1,0.1,0.2,0.2,0.1,0.3L278,182c0,0,0,0.1,0,0.1c-0.1,0.1-0.1,0.1-0.2,0.1h0h-0.1c-0.1,0-0.1-0.1-0.2-0.1L274.2,173.8z"/>
		<path class="st2" d="M285.6,170.9c0-0.1,0.1-0.2,0.2-0.2c0.1,0,0.2,0.1,0.2,0.2v0.4c0,0.1-0.1,0.2-0.2,0.2c-0.1,0-0.2-0.1-0.2-0.2
			V170.9z M285.6,173.7c0-0.1,0.1-0.2,0.2-0.2c0.1,0,0.2,0.1,0.2,0.2v8.2c0,0.1-0.1,0.2-0.2,0.2c-0.1,0-0.2-0.1-0.2-0.2V173.7z"/>
		<path class="st2" d="M290.3,173.8c-0.1-0.1,0-0.2,0.1-0.3c0.1-0.1,0.2,0,0.3,0.1l3.2,7.7l3.2-7.7c0-0.1,0.2-0.2,0.3-0.1
			c0.1,0.1,0.2,0.2,0.1,0.3l-3.4,8.2c0,0,0,0.1,0,0.1c-0.1,0.1-0.1,0.1-0.2,0.1h0h-0.1c-0.1,0-0.1-0.1-0.2-0.1L290.3,173.8z"/>
		<path class="st2" d="M304.8,173.5c2.3,0,4.1,1.9,4.1,4.3c0,2.4-1.8,4.3-4.1,4.3s-4.1-2-4.1-4.3
			C300.7,175.4,302.5,173.5,304.8,173.5z M304.8,181.7c2,0,3.7-1.7,3.7-3.9c0-2.2-1.7-3.9-3.7-3.9c-2,0-3.6,1.7-3.6,3.9
			C301.2,179.9,302.8,181.7,304.8,181.7z"/>
		<path class="st2" d="M311.6,184.4c0-0.1,0.1-0.2,0.2-0.2c2.6-0.7,3.2-1.5,3.2-3.3v-1.3c0-1.6,0.7-2.2,1.8-2.5
			c-1.1-0.3-1.8-1-1.8-2.5v-1.3c0-1.7-0.6-2.6-3.2-3.3c-0.1,0-0.2-0.1-0.2-0.2c0-0.2,0.2-0.2,0.4-0.2c3,0.6,3.5,1.7,3.5,3.5v1.4
			c0,1.4,0.4,2.2,2.2,2.2c0.3,0,0.4,0.1,0.4,0.3c0,0.2-0.1,0.3-0.4,0.3c-1.8,0-2.2,0.9-2.2,2.2v1.4c0,1.8-0.6,2.9-3.5,3.5
			C311.8,184.6,311.6,184.6,311.6,184.4z"/>
	</g>
</g>
<g>
	<path class="st3" d="M135.8,69.8c-5.5,10.1-1.7,22.6,8.3,28.1c10.1,5.5,22.6,1.7,28.1-8.3c3.2-5.9,3.2-12.7,0.7-18.4
		c-1.8-4-6.6-4.1-10.8-6.4c-3.7-2-6-6.1-9.9-5.7C145.5,59.6,139.2,63.5,135.8,69.8z"/>
	<path class="st3" d="M177,87.5c5.2,10.2,17.7,14.2,27.9,9c10.2-5.2,14.2-17.7,9-27.9c-3.1-6-8.7-9.9-14.9-10.9
		c-4.3-0.8-7.2,3.2-11.3,5.3c-3.8,1.9-8.4,1.5-10.3,5C174.1,73.8,173.7,81.1,177,87.5z"/>
	<path class="st4" d="M156,65c0,0,0.4,7,9.6,5.9"/>
	<path class="st4" d="M182.4,69.1c0,0,7.7,2.2,13-5"/>
	<path class="st5" d="M176.3,30.2C180.4,61,160.8,68,160.8,68"/>
	<path class="st5" d="M188.9,66.7c0,0,1.6-21.2-12.1-39.6"/>
	<g>
		<g>
			<g>
				<g>
					<g>
						<g>
							<path class="st6" d="M172.2,26c1.2,0.3,2.7-0.1,3.5,0.9c0,0,1.3-1.2,1,2.4c-0.2,3.5,1,4.3,2.9,3.9c1.9-0.3,7.1-2.1,10.8-2.3
								c3.7-0.2,7.3,0.2,12.3,2.9c5.1,2.8,3.4,5.4,3.4,5.4s0.6,1.3-1.1,2.9s-3.8,4.3-8.8,4.4c-5,0.1-9.9-0.4-13.8-6s-1-5.2-3.4-6.1
								c-2.3-0.9-0.6,1.5-0.4,2.1c0.2,0.6-0.7,3.8,7,12.2c0,0-0.6,1.2-1.3,0.1c0,0-0.8,0.8-1.2,0.1c-0.4-0.7-4.8-9.4-5.3-12.1
								c-0.4-2.7-1.6-4.2-2-3.8c-0.4,0.3,0.1,4-0.1,5.4s0.3,5.1-5.5,7.8s-10.7,2.9-16.6-0.3c-5.9-3.3-2.5-2-0.5-2.3
								c2-0.3,5.6-3.2,8.2-3.8s12-4.1,13.3-5.9c1.3-1.8,0.1-1.6,1.3-1.8s0,0,0,0s0.1-3.4-0.8-4c-0.9-0.6-1.1-1.2-2.4-0.5"/>
							<path class="st6" d="M174.4,37.1c0,0,0.1,2.5-0.2,3c-0.3,0.5,0.3,1.3-0.4,2.5"/>
							<path class="st6" d="M171.7,38.9c0,0,0.1,2-0.1,3s-0.9,2.9-2,3.7"/>
							<path class="st6" d="M166.5,41.1c0,0,0.2,2.1-0.2,2.6c-0.4,0.5-0.8,2-1.2,2.5c-0.4,0.5-0.8,0.9-1.2,1.3"/>
							<path class="st6" d="M169.3,40c0,0,0.2,2.1-0.2,2.6c-0.4,0.5-0.8,2-1.2,2.5c-0.4,0.5-0.8,0.9-1.2,1.3"/>
							<path class="st6" d="M162.5,42.5c0,0,0.4,1.6,0,2.4c-0.4,0.8,0,1.7-0.6,2.4"/>
							<path class="st6" d="M159.9,42.9c0,0,0.2,1.7-0.2,2.4s-0.6,1.7-0.6,1.9"/>
							<path class="st6" d="M157.7,43.6c0,0-0.1,1.7-0.5,2.1c-0.4,0.4-0.2,0.6-0.8,0.7"/>
							<path class="st6" d="M173.6,36c0,0-0.7,0.5-1.9,0.3"/>
							<path class="st6" d="M171.5,37.6c0,0-1.2-0.3-2.2-0.4c-0.9-0.1-2.1,0.6-2.1,0.6"/>
							<path class="st6" d="M169.5,38.6c0,0-1.6,0.3-2.5,0.2c-0.9-0.2-0.8-0.2-1.7-0.1"/>
							<path class="st6" d="M167.2,39.6c0,0-1.7,0.2-2.6-0.2c-0.9-0.5-2.1,0.2-2.4,0.1"/>
							<path class="st6" d="M164.2,40.8c0,0-1.1-0.5-2-0.5c-0.9,0-2.1,0.4-2.6,0.5"/>
							<path class="st6" d="M161.4,41.4c0,0-3,0.3-3.7,0.2"/>
							<path class="st6" d="M175.3,33.8c0,0-0.6,3.3-3.7,4.6c-3.1,1.3-10.4,3.7-10.8,3.9c-0.4,0.3-4.9,1.6-6.1,1.5"/>
							<path class="st6" d="M179,33.5c0,0,3.7,1.6,5.1,1.9s6.2,1.9,8.4,2s5.3,1.6,6.3,1.7c1,0.1,4.9,0.6,5.6,0.3"/>
							<path class="st6" d="M183.1,36.1c0,0,0.1,4.2,0.9,5.1"/>
							<path class="st6" d="M184.9,36.5c0,0-0.1,4,1.1,5.4"/>
							<path class="st6" d="M186.1,37.3c0,0,0.4,2.9,0.8,4c0.5,1.1,0.8,1.5,1.6,2c0.8,0.6,0.5,1.7,0.5,1.7"/>
							<path class="st6" d="M188.3,37.4c0,0,0.5,2.2,0.7,3.5c0.2,1.3,1.2,1.2,1.4,2.3c0.2,1.1,0.3,2.1,0.3,2.1"/>
							<path class="st6" d="M190.3,37.9c0,0,1.4,3.3,1.7,4.1c0.3,0.8-0.6,0.8-0.4,1.6"/>
							<path class="st6" d="M190.8,36.6c0,0,1.5-2.2,2.5-2.5c1-0.3,2.3-1.5,3-1.3"/>
							<path class="st6" d="M189.1,36c0,0,1.6-1.6,2.2-2.2c0.7-0.6,1.8-1.4,2.5-1.6"/>
							<path class="st6" d="M186.6,35.5c0,0,1.5-2,2.6-2.5c1.1-0.5,2.6-1.3,2.8-1.5"/>
							<path class="st6" d="M184.2,34.5c0,0,1.7-1.3,2-1.8c0.4-0.5,2.2-0.7,2.8-1.1"/>
							<path class="st6" d="M182.8,34.2c0,0,0.8-1,1.5-1.3"/>
							<path class="st6" d="M193.2,38.4c0,0,1.5,5.8,3.2,6.5c1.7,0.7,2.7,0.9,2.7,0.9"/>
							<path class="st6" d="M192.9,36.5c0,0,1.4-2.2,2.4-2.6c1-0.4,3.1-1,3.1-1"/>
							<path class="st6" d="M195.1,37.1c0,0,1.2-1.3,2.3-1.9c1.1-0.6,2.8-0.3,3.6-0.8"/>
							<path class="st6" d="M198.8,37.7c0,0,1.6-1.3,2.6-1.7c1-0.4,2.1-0.1,2.6-0.5"/>
							<path class="st6" d="M201.7,38.5c0,0-0.1-0.7,1.4-1.1c1.4-0.3,2.1-1.1,2.1-1.1"/>
							<path class="st6" d="M201.7,40.9c0,0-0.1,0.7,0.8,1.3"/>
							<path class="st6" d="M199.3,39.8c0,0,0.1,1.2,1,2s1.2,2.4,1.2,2.4"/>
							<path class="st6" d="M197.5,39.6c0,0-0.1,1.7,0.9,2.8s1.4,2.2,1.6,2.5"/>
							<path class="st6" d="M195.1,38.9c0,0,0.5,2.4,0.8,3c0.4,0.7,1.6,2.1,1.8,2.6"/>
						</g>
						<g>
							<path class="st7" d="M169.6,22.7c0,0-1.9,1.9-2,2.3s-2.8,3.4-4.9,4.6s-4.4,1.8-6.9,2.6c-2.6,0.7-5,0.8-6,0.8
								c-1,0-5.5-0.5-7.7-2.2c-2.2-1.7-3.3-2.9-3.3-2.9s0.4-1.2,1.7-1.7c1.2-0.5,3.4-1.6,4.7-2.1s2.9-1.1,5.6-1.8
								c2.8-0.7,3.2-1.1,5.9-1.4c2.6-0.3,7,0.4,7.9,0.7c1,0.3,3.7,0.5,4.4,0.5c0.8-0.1,1.6-0.6,2.2-0.1c0,0,0.6-0.9,1,1.2
								s1.3,2.3,2.4,1.7c1.1-0.6,3.9-2.6,6.1-3.3c2.2-0.8,4.4-1.2,7.9-0.6c3.5,0.7,3,2.5,3,2.5s0.6,0.7-0.2,1.9
								c-0.8,1.2-1.6,3.2-4.6,4.2s-6.1,1.6-9.3-1s-1.5-2.8-3-2.9c-1.6-0.1-0.1,1,0.1,1.3c0.2,0.3,0.2,2.3,6.2,5.8
								c0,0-0.2,0.8-0.8,0.3c0,0-0.4,0.6-0.7,0.3c-0.3-0.3-4.4-4.6-5.2-6.1s-1.6-2.1-1.8-1.9c-0.2,0.3,0.7,2.3,0.8,3.2
								c0.1,0.8,1,2.9-2,5.5c-3,2.6-6,3.7-10.1,2.9c-4.1-0.8-1.8-0.7-0.7-1.3c1.2-0.5,2.8-2.9,4.3-3.7c1.5-0.8,6.6-4.6,7.1-5.9
								c0.5-1.3-0.2-1,0.5-1.3c0.7-0.3,0,0,0,0s-0.5-2-1.1-2.2C170.5,22.3,170.3,22,169.6,22.7z"/>
							<path class="st8" d="M169.6,22.3c0,0-11.5,2.5-12,2.6c-0.5,0.1-6.5,2-7.6,1.9c-1.1,0-7.4,2-9.2,1.3"/>
							<path class="st8" d="M166.6,23.4c0,0-0.4,1.8-0.5,2.1c-0.1,0.3-0.5,0.6-0.6,0.7"/>
							<path class="st8" d="M164.9,23.8c0,0-1.1,3-1.6,3.5c-0.5,0.5-0.7,1.1-1,1.4"/>
							<path class="st8" d="M162.4,24.4c0,0,0,2.5-0.2,3c-0.2,0.5-0.4,1.4-0.9,2"/>
							<path class="st8" d="M161.3,24.8c0,0,0.1,1.1,0,2.3c-0.1,1.3,0,1.7-0.6,2.2c-0.6,0.5-1.3,1.3-1.9,1.6"/>
							<path class="st8" d="M160.7,24.7c0,0-1.3,2.6-1.8,3.2c-0.5,0.6-0.8,1.5-1.1,2c-0.3,0.5-0.3,1.4-0.8,1.7"/>
							<path class="st8" d="M155.9,26c0,0-0.7,2.7-1,3.5s-0.8,3.2-2.8,2.7"/>
							<path class="st8" d="M154.4,25.4c0,0-1.6-3-3.5-2"/>
							<path class="st8" d="M152.6,26.2c0,0-1.4-2.3-3-2.1"/>
							<path class="st8" d="M149.7,26.7c0,0-2-1.6-2.5-1.7c-0.5-0.2-1.5,0.1-1.9-0.2"/>
							<path class="st8" d="M146.6,27.1c0,0-1.1-1.1-1.9-1.3c-0.9-0.2-0.9-0.1-1.4-0.3"/>
							<path class="st8" d="M147.9,28.5c0,0-1.1,1.8-1.5,2.2c-0.4,0.4-0.6,0.7-0.7,1"/>
							<path class="st8" d="M150.6,27.8c0,0-1.1,3.2-1.7,3.7"/>
							<path class="st8" d="M152.6,27.2c0,0-1.2,3-1.6,3.7c-0.4,0.7-0.5,0.9-0.8,1.3"/>
							<path class="st8" d="M154.3,26.6c0,0-1.1,1.7-1.3,2.7c-0.2,0.9-1.3,2.5-1.7,2.7"/>
							<path class="st8" d="M158.2,25.1c0,0-0.4,1.4-0.7,2.1c-0.4,0.7-1,2-1.2,2.5s-0.9,1.6-1.1,2"/>
							<path class="st8" d="M166.6,22.5c0,0-0.7-0.5-0.9-0.6"/>
							<path class="st8" d="M164.8,23c0,0-1.2-0.8-1.7-1.3"/>
							<path class="st8" d="M162.7,23.5c0,0-1.1-1.3-1.7-1.4s-1-0.9-1.6-1"/>
							<path class="st8" d="M160.3,23.9c-0.1,0.1-1.7-1.9-2.2-2.1c-0.5-0.1-1.2-0.6-2-0.4"/>
							<path class="st8" d="M158.2,24.5c0,0-1.2-2.1-1.7-2.1s-1.5-0.4-1.9-0.5c-0.4-0.1-0.9,0.1-1.3-0.1"/>
							<path class="st8" d="M155.3,25.2c0,0,0.4-1-0.1-1.5c-0.5-0.5-0.8-1-1.4-1"/>
							<path class="st8" d="M144.3,27.5c0,0-1.1-1.3-1.9-1.2c-0.8,0.1-1.4,0-1.6,0"/>
							<path class="st8" d="M142.7,27.9c0,0-1.3-0.7-1.9-0.8c-0.6-0.1-0.9,0.2-1.4,0.2"/>
							<path class="st8" d="M142.5,28.9c0,0-0.7,0.9-1.2,0.9"/>
							<path class="st8" d="M145.4,28.3c0,0-0.8,1-1,1.4c-0.2,0.4,0.1,0.5-0.5,0.8"/>
							<path class="st8" d="M172.1,28.1c0,0,0.5,1.4,0.4,1.8c-0.1,0.4,0.4,0.7,0.1,1.5"/>
							<path class="st8" d="M170.8,29.7c0,0,0.4,1.2,0.4,1.8c0,0.6-0.1,1.9-0.6,2.5"/>
							<path class="st8" d="M168,31.9c0,0,0.5,1.2,0.3,1.6s-0.1,1.3-0.3,1.7c-0.2,0.4-0.3,0.6-0.5,1"/>
							<path class="st8" d="M165.8,33.4c0,0,0.5,0.9,0.4,1.4s0.3,1,0,1.5"/>
							<path class="st8" d="M164.3,34.1c0,0,0.4,0.9,0.3,1.5c-0.1,0.5-0.1,1.1-0.1,1.2"/>
							<path class="st8" d="M163.1,35c0,0,0.2,1,0.1,1.3c-0.2,0.3,0,0.4-0.4,0.6"/>
							<path class="st8" d="M171.4,27.6c0,0-0.4,0.4-1.1,0.5"/>
							<path class="st8" d="M170.4,28.9c0,0-0.8,0.1-1.4,0.2s-1.1,0.8-1.1,0.8"/>
							<path class="st8" d="M169.4,29.8c0,0-0.9,0.5-1.5,0.5c-0.6,0.1-0.5,0-1.1,0.2"/>
							<path class="st8" d="M168.1,30.9c0,0-1,0.5-1.6,0.3s-1.2,0.5-1.4,0.5"/>
							<path class="st8" d="M166.6,32.1c0,0-0.8-0.1-1.3,0.1c-0.5,0.2-1.2,0.6-1.5,0.7"/>
							<path class="st8" d="M165,33c0,0-1.7,0.7-2.2,0.8"/>
							<path class="st8" d="M172.1,26c0,0,0.2,2-1.5,3.4s-5.7,4-5.9,4.3s-2.7,1.8-3.5,2"/>
							<path class="st8" d="M174.3,25.2c0,0,2.5,0.3,3.4,0.2c0.9-0.1,4.1,0,5.4-0.4c1.3-0.4,3.5,0,4.1-0.2c0.6-0.1,3-0.5,3.4-0.8"/>
							<path class="st8" d="M177.2,25.9c0,0,0.8,2.5,1.4,2.8"/>
							<path class="st8" d="M178.4,25.8c0,0,0.6,2.4,1.5,2.9"/>
							<path class="st8" d="M179.2,26c0,0,0.7,1.6,1.1,2.2c0.5,0.5,0.7,0.7,1.3,0.9c0.6,0.2,0.6,0.9,0.6,0.9"/>
							<path class="st8" d="M180.5,25.7c0,0,0.6,1.2,1,1.9c0.4,0.7,0.9,0.5,1.2,1.1c0.3,0.6,0.5,1.2,0.5,1.2"/>
							<path class="st8" d="M181.9,25.6c0,0,1.4,1.7,1.7,2.1c0.3,0.4-0.2,0.6,0,1"/>
							<path class="st8" d="M181.9,24.8c0,0,0.6-1.5,1.1-1.9c0.5-0.4,1.1-1.3,1.6-1.3"/>
							<path class="st8" d="M180.8,24.7c0,0,0.7-1.2,1-1.7c0.3-0.5,0.9-1.2,1.2-1.4"/>
							<path class="st8" d="M179.2,24.9c0,0,0.6-1.5,1.2-2s1.3-1.2,1.4-1.4"/>
							<path class="st8" d="M177.6,24.8c0,0,0.8-1.1,0.9-1.5c0.1-0.4,1.2-0.8,1.5-1.2"/>
							<path class="st8" d="M176.7,24.8c0,0,0.3-0.7,0.7-1.1"/>
							<path class="st8" d="M183.7,25.4c0,0,1.8,3.1,3,3.2c1.2,0.1,1.8,0,1.8,0"/>
							<path class="st8" d="M183.2,24.3c0,0,0.5-1.6,1-2s1.7-1.1,1.7-1.1"/>
							<path class="st8" d="M184.6,24.3c0,0,0.5-1,1.1-1.5s1.6-0.7,2-1.1"/>
							<path class="st8" d="M186.9,23.9c0,0,0.8-1.1,1.3-1.5c0.6-0.4,1.3-0.4,1.5-0.8"/>
							<path class="st8" d="M188.8,23.9c0,0-0.2-0.4,0.7-0.9c0.8-0.5,1.1-1.1,1.1-1.1"/>
							<path class="st8" d="M189.2,25.3c0,0,0.1,0.4,0.7,0.6"/>
							<path class="st8" d="M187.6,25.1c0,0,0.3,0.7,1,1c0.7,0.3,1.1,1.2,1.1,1.2"/>
							<path class="st8" d="M186.5,25.3c0,0,0.2,1,1,1.5s1.2,1,1.4,1.2"/>
							<path class="st8" d="M184.9,25.3c0,0,0.7,1.3,1,1.6c0.3,0.3,1.3,0.9,1.5,1.2"/>
						</g>
					</g>
				</g>
			</g>
		</g>
	</g>
</g>
<rect id="_x3C_Sector_x3E__1_" x="7.7" y="-56.7" class="st9" width="370.6" height="374.6"/>
</svg>
